<mxfile host="app.diagrams.net" agent="Mozilla/5.0 (Windows NT 10.0; Win64; x64) AppleWebKit/537.36 (KHTML, like Gecko) Chrome/128.0.0.0 Safari/537.36 Edg/128.0.0.0" version="24.7.16">
  <diagram name="Page-1" id="6QL9S-pCpmcJjFNF-f7X">
    <mxGraphModel dx="1050" dy="545" grid="1" gridSize="10" guides="1" tooltips="1" connect="1" arrows="1" fold="1" page="1" pageScale="1" pageWidth="850" pageHeight="1100" math="0" shadow="0">
      <root>
        <mxCell id="0" />
        <mxCell id="1" parent="0" />
        <mxCell id="y8tGStvjq1TqEmuDH6Hu-21" value="Target group which will&amp;nbsp;&lt;div&gt;do health check on specific port of ec2 instances&amp;nbsp;&lt;/div&gt;" style="rounded=0;whiteSpace=wrap;html=1;fillColor=none;" vertex="1" parent="1">
          <mxGeometry x="610" y="26" width="235" height="450" as="geometry" />
        </mxCell>
        <mxCell id="y8tGStvjq1TqEmuDH6Hu-2" value="" style="outlineConnect=0;dashed=0;verticalLabelPosition=bottom;verticalAlign=top;align=center;html=1;shape=mxgraph.aws3.ec2;fillColor=#F58534;gradientColor=none;" vertex="1" parent="1">
          <mxGeometry x="735" y="110" width="70" height="80" as="geometry" />
        </mxCell>
        <mxCell id="y8tGStvjq1TqEmuDH6Hu-3" value="" style="outlineConnect=0;dashed=0;verticalLabelPosition=bottom;verticalAlign=top;align=center;html=1;shape=mxgraph.aws3.ec2;fillColor=#F58534;gradientColor=none;" vertex="1" parent="1">
          <mxGeometry x="735" y="330" width="70" height="80" as="geometry" />
        </mxCell>
        <mxCell id="y8tGStvjq1TqEmuDH6Hu-8" value="" style="sketch=0;outlineConnect=0;fontColor=#232F3E;gradientColor=none;fillColor=#8C4FFF;strokeColor=none;dashed=0;verticalLabelPosition=bottom;verticalAlign=top;align=center;html=1;fontSize=12;fontStyle=0;aspect=fixed;pointerEvents=1;shape=mxgraph.aws4.application_load_balancer;" vertex="1" parent="1">
          <mxGeometry x="330" y="212" width="78" height="78" as="geometry" />
        </mxCell>
        <mxCell id="y8tGStvjq1TqEmuDH6Hu-13" value="Ec2 instance 1 this will have&amp;nbsp;&lt;div&gt;SG which will allow http&amp;nbsp;&lt;/div&gt;&lt;div&gt;request from port 80&lt;/div&gt;" style="text;html=1;align=center;verticalAlign=middle;resizable=0;points=[];autosize=1;strokeColor=none;fillColor=none;" vertex="1" parent="1">
          <mxGeometry x="670" y="410" width="180" height="60" as="geometry" />
        </mxCell>
        <mxCell id="y8tGStvjq1TqEmuDH6Hu-14" value="Ec2 instance 2 this will have&amp;nbsp;&lt;div&gt;SG which will allow http&amp;nbsp;&lt;/div&gt;&lt;div&gt;request from port 80&lt;/div&gt;" style="text;html=1;align=center;verticalAlign=middle;resizable=0;points=[];autosize=1;strokeColor=none;fillColor=none;" vertex="1" parent="1">
          <mxGeometry x="670" y="50" width="180" height="60" as="geometry" />
        </mxCell>
        <mxCell id="y8tGStvjq1TqEmuDH6Hu-15" value="Application Loadbalancer&lt;div&gt;used&amp;nbsp;&lt;/div&gt;&lt;div&gt;For Http &amp;amp; Https&lt;br&gt;Will have SG which will accept&amp;nbsp;&lt;/div&gt;&lt;div&gt;connection from 80 or 443 port&lt;br&gt;And then&lt;/div&gt;&lt;div&gt;&amp;nbsp;forward the request to target group&lt;/div&gt;&lt;div&gt;&lt;br&gt;&lt;/div&gt;" style="text;html=1;align=center;verticalAlign=middle;resizable=0;points=[];autosize=1;strokeColor=none;fillColor=none;" vertex="1" parent="1">
          <mxGeometry x="264" y="290" width="210" height="130" as="geometry" />
        </mxCell>
        <mxCell id="y8tGStvjq1TqEmuDH6Hu-16" value="&lt;div&gt;&lt;br&gt;&lt;/div&gt;" style="text;html=1;align=center;verticalAlign=middle;resizable=0;points=[];autosize=1;strokeColor=none;fillColor=none;" vertex="1" parent="1">
          <mxGeometry x="485" y="185" width="20" height="30" as="geometry" />
        </mxCell>
        <mxCell id="y8tGStvjq1TqEmuDH6Hu-17" value="&lt;div&gt;&lt;br&gt;&lt;/div&gt;" style="text;html=1;align=center;verticalAlign=middle;resizable=0;points=[];autosize=1;strokeColor=none;fillColor=none;" vertex="1" parent="1">
          <mxGeometry x="504" y="305" width="20" height="30" as="geometry" />
        </mxCell>
        <mxCell id="y8tGStvjq1TqEmuDH6Hu-19" value="" style="endArrow=classic;html=1;rounded=0;" edge="1" parent="1">
          <mxGeometry width="50" height="50" relative="1" as="geometry">
            <mxPoint x="80" y="250.87" as="sourcePoint" />
            <mxPoint x="330" y="250.00494809688587" as="targetPoint" />
          </mxGeometry>
        </mxCell>
        <mxCell id="y8tGStvjq1TqEmuDH6Hu-20" value="http request for&lt;div&gt;&amp;nbsp;/user or /search&lt;div&gt;&lt;br&gt;&lt;/div&gt;&lt;/div&gt;" style="text;html=1;align=center;verticalAlign=middle;resizable=0;points=[];autosize=1;strokeColor=none;fillColor=none;" vertex="1" parent="1">
          <mxGeometry x="140" y="190" width="110" height="60" as="geometry" />
        </mxCell>
        <mxCell id="y8tGStvjq1TqEmuDH6Hu-22" value="Target Group containing ec2 instances&lt;div&gt;&lt;br&gt;&lt;/div&gt;" style="text;html=1;align=center;verticalAlign=middle;resizable=0;points=[];autosize=1;strokeColor=none;fillColor=none;" vertex="1" parent="1">
          <mxGeometry x="615" y="483" width="230" height="40" as="geometry" />
        </mxCell>
        <mxCell id="y8tGStvjq1TqEmuDH6Hu-24" value="" style="endArrow=classic;html=1;rounded=0;" edge="1" parent="1" source="y8tGStvjq1TqEmuDH6Hu-8">
          <mxGeometry width="50" height="50" relative="1" as="geometry">
            <mxPoint x="400" y="310" as="sourcePoint" />
            <mxPoint x="608" y="250" as="targetPoint" />
          </mxGeometry>
        </mxCell>
      </root>
    </mxGraphModel>
  </diagram>
</mxfile>
